# 3ds Max Wavefront OBJ Exporter v0.97b - (c)2007 guruware
# File Created: 15.08.2020 19:05:06

mtllib tile_normal_msh.mtl

#
# object Normal
#

v  -1.192265 0.093750 -2.065064
v  -1.250000 0.093750 -2.165064
v  1.250000 0.093750 -2.165064
v  -2.384530 0.093750 -0.000000
v  1.192265 0.093750 2.065064
v  -1.004927 0.093750 -2.165063
v  1.004927 0.093750 -2.165064
v  1.372536 0.093750 -1.952824
v  1.192265 0.093750 -2.065063
v  2.377464 0.093750 -0.212240
v  2.377464 0.093750 0.212240
v  2.500000 0.093750 -0.000000
v  2.384530 0.093750 -0.000000
v  1.250000 0.093750 2.165064
v  1.372537 0.093750 1.952824
v  1.004927 0.093750 2.165063
v  -1.004927 0.093750 2.165064
v  -1.372537 0.093750 1.952824
v  -1.250000 0.093750 2.165064
v  -1.192265 0.093750 2.065063
v  -2.377464 0.093750 0.212239
v  -2.377463 0.093750 -0.212240
v  -2.500000 0.093750 -0.000000
v  -1.372536 0.093750 -1.952825
v  -1.192265 -0.106250 -2.065064
v  -1.250000 -0.106250 -2.165064
v  1.250000 -0.106250 -2.165064
v  -2.384530 -0.106250 -0.000000
v  1.192265 -0.106250 2.065064
v  -1.004927 -0.106250 -2.165063
v  1.004927 -0.106250 -2.165064
v  1.372536 -0.106250 -1.952824
v  1.192265 -0.106250 -2.065063
v  2.377464 -0.106250 -0.212240
v  2.377464 -0.106250 0.212240
v  2.500000 -0.106250 -0.000000
v  2.384530 -0.106250 -0.000000
v  1.250000 -0.106250 2.165064
v  1.372537 -0.106250 1.952824
v  1.004927 -0.106250 2.165063
v  -1.004927 -0.106250 2.165064
v  -1.372537 -0.106250 1.952824
v  -1.250000 -0.106250 2.165064
v  -1.192265 -0.106250 2.065063
v  -2.377464 -0.106250 0.212239
v  -2.377463 -0.106250 -0.212240
v  -2.500000 -0.106250 -0.000000
v  -1.372536 -0.106250 -1.952825
v  -1.250000 0.093750 -2.165064
v  -1.250000 0.093750 -2.165064
v  1.250000 0.093750 -2.165064
v  1.250000 0.093750 -2.165064
v  -1.004927 0.093750 -2.165063
v  1.004927 0.093750 -2.165064
v  1.372536 0.093750 -1.952824
v  2.377464 0.093750 -0.212240
v  2.377464 0.093750 0.212240
v  2.500000 0.093750 -0.000000
v  2.500000 0.093750 -0.000000
v  1.250000 0.093750 2.165064
v  1.250000 0.093750 2.165064
v  1.372537 0.093750 1.952824
v  1.004927 0.093750 2.165063
v  -1.004927 0.093750 2.165064
v  -1.372537 0.093750 1.952824
v  -1.250000 0.093750 2.165064
v  -1.250000 0.093750 2.165064
v  -2.377464 0.093750 0.212239
v  -2.377463 0.093750 -0.212240
v  -2.500000 0.093750 -0.000000
v  -2.500000 0.093750 -0.000000
v  -1.372536 0.093750 -1.952825
v  -1.250000 -0.106250 -2.165064
v  -1.250000 -0.106250 -2.165064
v  1.250000 -0.106250 -2.165064
v  1.250000 -0.106250 -2.165064
v  -1.004927 -0.106250 -2.165063
v  1.004927 -0.106250 -2.165064
v  1.372536 -0.106250 -1.952824
v  2.377464 -0.106250 -0.212240
v  2.377464 -0.106250 0.212240
v  2.500000 -0.106250 -0.000000
v  2.500000 -0.106250 -0.000000
v  1.250000 -0.106250 2.165064
v  1.250000 -0.106250 2.165064
v  1.372537 -0.106250 1.952824
v  1.004927 -0.106250 2.165063
v  -1.004927 -0.106250 2.165064
v  -1.372537 -0.106250 1.952824
v  -1.250000 -0.106250 2.165064
v  -1.250000 -0.106250 2.165064
v  -2.377464 -0.106250 0.212239
v  -2.377463 -0.106250 -0.212240
v  -2.500000 -0.106250 -0.000000
v  -2.500000 -0.106250 -0.000000
v  -1.372536 -0.106250 -1.952825
# 96 vertices

vn 0.000000 1.000000 -0.000000
vn 0.000000 1.000000 -0.000000
vn 0.000000 1.000000 -0.000000
vn 0.000000 1.000000 -0.000000
vn 0.000000 1.000000 -0.000000
vn 0.000000 1.000000 -0.000000
vn 0.000000 1.000000 -0.000000
vn 0.000000 1.000000 -0.000000
vn 0.000000 1.000000 -0.000000
vn 0.000000 1.000000 -0.000000
vn 0.000000 1.000000 -0.000000
vn 0.000000 1.000000 -0.000000
vn 0.000000 1.000000 -0.000000
vn 0.000000 1.000000 -0.000000
vn 0.000000 1.000000 -0.000000
vn 0.000000 1.000000 -0.000000
vn 0.000000 1.000000 -0.000000
vn 0.000000 1.000000 -0.000000
vn 0.000000 1.000000 -0.000000
vn 0.000000 1.000000 -0.000000
vn 0.000000 1.000000 -0.000000
vn 0.000000 1.000000 -0.000000
vn 0.000000 1.000000 -0.000000
vn 0.000000 1.000000 -0.000000
vn 0.000000 1.000000 -0.000000
vn 0.000000 1.000000 -0.000000
vn 0.000000 1.000000 -0.000000
vn 0.000000 1.000000 -0.000000
vn 0.000000 1.000000 -0.000000
vn 0.000000 1.000000 -0.000000
vn 0.000000 1.000000 -0.000000
vn 0.000000 1.000000 -0.000000
vn 0.000000 1.000000 -0.000000
vn 0.000000 1.000000 -0.000000
vn 0.000000 1.000000 -0.000000
vn 0.000000 1.000000 -0.000000
vn 0.000000 1.000000 -0.000000
vn 0.000000 1.000000 -0.000000
vn 0.000000 1.000000 -0.000000
vn 0.000000 1.000000 -0.000000
vn 0.000000 1.000000 -0.000000
vn 0.000000 1.000000 -0.000000
vn 0.000000 1.000000 -0.000000
vn 0.000000 1.000000 -0.000000
vn 0.000000 1.000000 -0.000000
vn 0.000000 1.000000 -0.000000
vn 0.000000 1.000000 -0.000000
vn 0.000000 1.000000 -0.000000
vn 0.000000 1.000000 -0.000000
vn 0.000000 1.000000 -0.000000
vn 0.000000 1.000000 -0.000000
vn 0.000000 1.000000 -0.000000
vn 0.000000 1.000000 -0.000000
vn 0.000000 1.000000 -0.000000
vn 0.000000 1.000000 -0.000000
vn 0.000000 1.000000 -0.000000
vn 0.000000 1.000000 -0.000000
vn 0.000000 1.000000 -0.000000
vn 0.000000 1.000000 -0.000000
vn 0.000000 1.000000 -0.000000
vn 0.000000 1.000000 -0.000000
vn 0.000000 1.000000 -0.000000
vn 0.000000 1.000000 -0.000000
vn 0.000000 1.000000 -0.000000
vn 0.000000 1.000000 -0.000000
vn 0.000000 1.000000 -0.000000
vn 0.000000 1.000000 -0.000000
vn 0.000000 1.000000 -0.000000
vn 0.000000 1.000000 -0.000000
vn 0.000000 1.000000 -0.000000
vn 0.000000 1.000000 -0.000000
vn 0.000000 1.000000 -0.000000
vn 0.000000 1.000000 -0.000000
vn 0.000000 1.000000 -0.000000
vn 0.000000 1.000000 -0.000000
vn 0.000000 1.000000 -0.000000
vn 0.000000 1.000000 -0.000000
vn 0.000000 1.000000 -0.000000
vn 0.000000 1.000000 -0.000000
vn 0.000000 1.000000 -0.000000
vn 0.000000 1.000000 -0.000000
vn 0.000000 1.000000 -0.000000
vn 0.000000 1.000000 -0.000000
vn 0.000000 1.000000 -0.000000
vn 0.000000 -1.000000 -0.000000
vn 0.000000 -1.000000 -0.000000
vn 0.000000 -1.000000 -0.000000
vn 0.000000 -1.000000 -0.000000
vn 0.000000 -1.000000 -0.000000
vn 0.000000 -1.000000 -0.000000
vn 0.000000 -1.000000 -0.000000
vn 0.000000 -1.000000 0.000000
vn -0.000000 -1.000000 0.000000
vn 0.000000 -1.000000 -0.000000
vn 0.000000 -1.000000 -0.000000
vn -0.000000 -1.000000 0.000000
vn 0.000000 -1.000000 -0.000000
vn -0.000000 -1.000000 0.000000
vn 0.000000 -1.000000 -0.000000
vn 0.000000 -1.000000 -0.000000
vn 0.000000 -1.000000 0.000000
vn 0.000000 -1.000000 0.000000
vn 0.000000 -1.000000 -0.000000
vn 0.000000 -1.000000 0.000000
vn 0.000000 -1.000000 -0.000000
vn 0.000000 -1.000000 -0.000000
vn 0.000000 -1.000000 -0.000000
vn 0.000000 -1.000000 -0.000000
vn 0.000000 -1.000000 0.000000
vn 0.000000 -1.000000 0.000000
vn 0.000000 -1.000000 -0.000000
vn 0.000000 -1.000000 -0.000000
vn 0.000000 -1.000000 -0.000000
vn -0.000000 -1.000000 0.000000
vn 0.000000 -1.000000 -0.000000
vn -0.000000 -1.000000 0.000000
vn 0.000000 -1.000000 0.000000
vn 0.000000 -1.000000 0.000000
vn 0.000000 -1.000000 -0.000000
vn 0.000000 -1.000000 -0.000000
vn -0.000000 -1.000000 0.000000
vn 0.000000 -1.000000 -0.000000
vn -0.000000 -1.000000 -0.000000
vn 0.000000 -1.000000 0.000000
vn 0.000000 -1.000000 -0.000000
vn 0.000000 -1.000000 -0.000000
vn 0.000000 -1.000000 0.000000
vn 0.000000 -1.000000 -0.000000
vn -0.000000 -1.000000 0.000000
vn -0.000000 -1.000000 0.000000
vn -0.000000 -1.000000 -0.000000
vn 0.000000 -1.000000 0.000000
vn 0.000000 -1.000000 -0.000000
vn 0.000000 -1.000000 -0.000000
vn 0.000000 -1.000000 -0.000000
vn 0.000000 -1.000000 -0.000000
vn 0.000000 -1.000000 -0.000000
vn 0.000000 -1.000000 -0.000000
vn 0.000000 -1.000000 -0.000000
vn 0.000000 -1.000000 -0.000000
vn 0.000000 -1.000000 -0.000000
vn 0.000000 -1.000000 -0.000000
vn 0.000000 -1.000000 -0.000000
vn 0.000000 -1.000000 -0.000000
vn 0.000000 -1.000000 -0.000000
vn 0.000000 -1.000000 -0.000000
vn 0.000000 -1.000000 -0.000000
vn 0.000000 -1.000000 -0.000000
vn 0.000000 -1.000000 -0.000000
vn 0.000000 -1.000000 -0.000000
vn 0.000000 -1.000000 -0.000000
vn 0.000000 -1.000000 -0.000000
vn 0.000000 -1.000000 -0.000000
vn 0.000000 -1.000000 -0.000000
vn 0.000000 -1.000000 -0.000000
vn 0.000000 -1.000000 -0.000000
vn 0.000000 -1.000000 -0.000000
vn 0.000000 -1.000000 -0.000000
vn 0.000000 -1.000000 -0.000000
vn 0.000000 -1.000000 -0.000000
vn 0.000000 -1.000000 -0.000000
vn 0.000000 -1.000000 -0.000000
vn 0.000000 -1.000000 -0.000000
vn 0.000000 -1.000000 -0.000000
vn 0.000000 -1.000000 -0.000000
vn 0.000000 -1.000000 -0.000000
vn 0.000000 -1.000000 -0.000000
vn 0.000000 -1.000000 -0.000000
vn 0.000001 0.000000 -1.000000
vn 0.000002 0.000000 -1.000000
vn 0.000002 0.000000 -1.000000
vn 0.000002 0.000000 -1.000000
vn 0.000001 0.000000 -1.000000
vn 0.000001 0.000000 -1.000000
vn 0.000000 0.000000 -1.000000
vn -0.000000 0.000000 -1.000000
vn -0.000000 0.000000 -1.000000
vn -0.000000 0.000000 -1.000000
vn 0.000000 0.000000 -1.000000
vn 0.000000 0.000000 -1.000000
vn 0.866025 0.000000 -0.500000
vn 0.866026 0.000000 -0.500000
vn 0.866026 0.000000 -0.500000
vn 0.866026 0.000000 -0.500000
vn 0.866025 0.000000 -0.500000
vn 0.866025 0.000000 -0.500000
vn 0.866025 0.000000 -0.500000
vn 0.866025 0.000000 -0.500000
vn 0.866025 0.000000 -0.500000
vn 0.866025 0.000000 -0.500000
vn 0.866026 0.000000 -0.500000
vn 0.866025 0.000000 -0.500000
vn 0.866026 0.000000 0.500000
vn 0.866026 0.000000 0.499999
vn 0.866026 0.000000 0.499999
vn 0.866026 0.000000 0.499999
vn 0.866026 0.000000 0.500000
vn 0.866026 0.000000 0.500000
vn 0.866025 0.000000 0.500000
vn 0.866025 0.000000 0.500000
vn 0.866025 0.000000 0.500000
vn 0.866025 0.000000 0.500000
vn 0.866025 0.000000 0.500000
vn 0.866025 0.000000 0.500000
vn -0.000001 0.000000 1.000000
vn -0.000002 0.000000 1.000000
vn -0.000002 0.000000 1.000000
vn -0.000002 0.000000 1.000000
vn -0.000001 0.000000 1.000000
vn -0.000001 0.000000 1.000000
vn 0.000000 0.000000 1.000000
vn 0.000000 0.000000 1.000000
vn 0.000000 0.000000 1.000000
vn 0.000000 0.000000 1.000000
vn 0.000000 0.000000 1.000000
vn 0.000000 0.000000 1.000000
vn -0.866025 0.000000 0.500000
vn -0.866025 0.000000 0.500000
vn -0.866025 0.000000 0.500000
vn -0.866025 0.000000 0.500000
vn -0.866025 0.000000 0.500000
vn -0.866025 0.000000 0.500000
vn -0.866025 0.000000 0.500000
vn -0.866025 0.000000 0.500000
vn -0.866025 0.000000 0.500000
vn -0.866025 0.000000 0.500000
vn -0.866025 0.000000 0.500000
vn -0.866025 0.000000 0.500000
vn -0.866025 0.000000 -0.500001
vn -0.866024 0.000000 -0.500002
vn -0.866024 0.000000 -0.500002
vn -0.866024 0.000000 -0.500002
vn -0.866025 0.000000 -0.500001
vn -0.866025 0.000000 -0.500001
vn -0.866026 0.000000 -0.500000
vn -0.866026 0.000000 -0.500000
vn -0.866026 0.000000 -0.500000
vn -0.866026 0.000000 -0.500000
vn -0.866026 0.000000 -0.500000
vn -0.866026 0.000000 -0.500000
vn -0.000000 0.000000 -1.000000
vn 0.000001 0.000000 -1.000000
vn 0.000001 0.000000 -1.000000
vn 0.000001 0.000000 -1.000000
vn -0.000000 0.000000 -1.000000
vn -0.000000 0.000000 -1.000000
vn 0.866025 0.000000 -0.500000
vn 0.866025 0.000000 -0.500000
vn 0.866025 0.000000 -0.500000
vn 0.866025 0.000000 -0.500000
vn 0.866025 0.000000 -0.500000
vn 0.866025 0.000000 -0.500000
vn 0.866025 0.000000 0.500000
vn 0.866026 0.000000 0.500000
vn 0.866026 0.000000 0.500000
vn 0.866026 0.000000 0.500000
vn 0.866025 0.000000 0.500000
vn 0.866025 0.000000 0.500000
vn 0.000000 0.000000 1.000000
vn -0.000001 0.000000 1.000000
vn -0.000001 0.000000 1.000000
vn -0.000001 0.000000 1.000000
vn 0.000000 0.000000 1.000000
vn 0.000000 0.000000 1.000000
vn -0.866025 0.000000 0.500000
vn -0.866025 0.000000 0.500000
vn -0.866025 0.000000 0.500000
vn -0.866025 0.000000 0.500000
vn -0.866025 0.000000 0.500000
vn -0.866025 0.000000 0.500000
vn -0.866026 0.000000 -0.500000
vn -0.866025 0.000000 -0.500001
vn -0.866025 0.000000 -0.500001
vn -0.866025 0.000000 -0.500001
vn -0.866026 0.000000 -0.500000
vn -0.866026 0.000000 -0.500000
# 276 vertex normals

vt 0.151367 0.925000 0.000000
vt 0.127313 0.925000 0.000000
vt 0.132980 0.905370 0.000000
vt 0.015960 0.500001 0.000000
vt 0.132980 0.094630 0.000000
vt 0.367020 0.094630 0.000000
vt 0.484041 0.500001 0.000000
vt 0.367020 0.905370 0.000000
vt 0.372687 0.925000 0.000000
vt 0.348633 0.925000 0.000000
vt 0.384714 0.883338 0.000000
vt 0.495374 0.500001 0.000000
vt 0.483347 0.541664 0.000000
vt 0.483347 0.458337 0.000000
vt 0.372687 0.075000 0.000000
vt 0.384714 0.116662 0.000000
vt 0.348633 0.075000 0.000000
vt 0.127313 0.075000 0.000000
vt 0.151367 0.075000 0.000000
vt 0.115286 0.116663 0.000000
vt 0.004626 0.500001 0.000000
vt 0.016653 0.458338 0.000000
vt 0.016653 0.541664 0.000000
vt 0.115286 0.883338 0.000000
vt 0.867020 0.905370 0.000000
vt 0.324771 0.033740 0.000000
vt 0.314049 0.033740 0.000000
vt 0.867020 0.094630 0.000000
vt 0.984040 0.500001 0.000000
vt 0.632980 0.905370 0.000000
vt 0.515959 0.500001 0.000000
vt 0.632980 0.094630 0.000000
vt 0.314049 0.016261 0.000000
vt 0.324771 0.016261 0.000000
vt 0.185938 0.033740 0.000000
vt 0.324771 0.033740 0.000000
vt 0.324771 0.016261 0.000000
vt 0.185938 0.016261 0.000000
vt 0.314049 0.033739 0.000000
vt 0.314049 0.016261 0.000000
vt 0.185938 0.033739 0.000000
vt 0.175229 0.033739 0.000000
vt 0.175229 0.016260 0.000000
vt 0.185938 0.016260 0.000000
vt 0.314049 0.033739 0.000000
vt 0.314049 0.016261 0.000000
vt 0.185938 0.033739 0.000000
vt 0.175229 0.033739 0.000000
vt 0.175229 0.016261 0.000000
vt 0.185938 0.016261 0.000000
vt 0.872687 0.925000 0.000000
vt 0.848633 0.925000 0.000000
vt 0.651367 0.925000 0.000000
vt 0.627313 0.925000 0.000000
vt 0.615286 0.883338 0.000000
vt 0.516653 0.541664 0.000000
vt 0.504626 0.500001 0.000000
vt 0.516653 0.458338 0.000000
vt 0.615286 0.116662 0.000000
vt 0.627313 0.075000 0.000000
vt 0.651367 0.075000 0.000000
vt 0.848633 0.075000 0.000000
vt 0.872687 0.075000 0.000000
vt 0.884714 0.116663 0.000000
vt 0.983347 0.458338 0.000000
vt 0.995374 0.500001 0.000000
vt 0.983347 0.541664 0.000000
vt 0.884714 0.883338 0.000000
vt 0.314049 0.033739 0.000000
vt 0.314049 0.016261 0.000000
vt 0.185938 0.033739 0.000000
vt 0.324771 0.033739 0.000000
vt 0.324771 0.016261 0.000000
vt 0.185938 0.016260 0.000000
vt 0.314049 0.033740 0.000000
vt 0.314049 0.016261 0.000000
vt 0.185938 0.033740 0.000000
vt 0.324771 0.033740 0.000000
vt 0.324771 0.016261 0.000000
vt 0.185938 0.016261 0.000000
vt 0.314049 0.033740 0.000000
vt 0.314049 0.016261 0.000000
vt 0.185938 0.033740 0.000000
vt 0.185938 0.016261 0.000000
vt 0.324771 0.033739 0.000000
vt 0.324771 0.016261 0.000000
vt 0.324771 0.033739 0.000000
vt 0.324771 0.016261 0.000000
vt 0.175229 0.033739 0.000000
vt 0.175229 0.016261 0.000000
vt 0.175229 0.033740 0.000000
vt 0.175229 0.016261 0.000000
vt 0.175229 0.033740 0.000000
vt 0.175229 0.016261 0.000000
vt 0.175229 0.033740 0.000000
vt 0.175229 0.016261 0.000000
# 96 texture coords

o Normal
g Normal
usemtl Material__25
s 1
f 53/1/1 50/2/2 1/3/3 
f 1/3/4 4/4/5 20/5/6 
f 20/5/7 5/6/8 13/7/9 
f 1/3/10 20/5/11 13/7/12 
f 1/3/13 13/7/14 9/8/15 
f 9/8/16 3/9/17 54/10/18 
f 1/3/19 9/8/20 54/10/21 
f 54/10/22 53/1/23 1/3/24 
f 8/11/25 3/9/26 9/8/27 
f 13/7/28 12/12/29 10/13/30 
f 9/8/31 13/7/32 10/13/33 
f 10/13/34 8/11/35 9/8/36 
f 11/14/37 12/12/38 13/7/39 
f 5/6/40 61/15/41 62/16/42 
f 13/7/43 5/6/44 62/16/45 
f 62/16/46 11/14/47 13/7/48 
f 63/17/49 61/15/50 5/6/51 
f 20/5/52 19/18/53 17/19/54 
f 5/6/55 20/5/56 17/19/57 
f 17/19/58 63/17/59 5/6/60 
f 18/20/61 19/18/62 20/5/63 
f 4/4/64 71/21/65 68/22/66 
f 20/5/67 4/4/68 68/22/69 
f 68/22/70 18/20/71 20/5/72 
f 69/23/73 71/21/74 4/4/75 
f 1/3/76 50/2/77 72/24/78 
f 4/4/79 1/3/80 72/24/81 
f 72/24/82 69/23/83 4/4/84 
f 25/25/85 73/51/86 30/52/87 
f 44/28/88 28/29/89 25/25/90 
f 25/25/91 33/30/92 37/31/93 
f 44/28/94 25/25/95 37/31/96 
f 44/28/97 37/31/98 29/32/99 
f 31/53/100 75/54/101 33/30/102 
f 31/53/103 33/30/104 25/25/105 
f 25/25/106 30/52/107 31/53/108 
f 33/30/109 75/54/110 32/55/111 
f 34/56/112 82/57/113 37/31/114 
f 34/56/115 37/31/116 33/30/117 
f 33/30/118 32/55/119 34/56/120 
f 37/31/121 82/57/122 35/58/123 
f 39/59/124 84/60/125 29/32/126 
f 39/59/127 29/32/128 37/31/129 
f 37/31/130 35/58/131 39/59/132 
f 29/32/133 84/60/134 40/61/135 
f 41/62/136 90/63/137 44/28/138 
f 41/62/139 44/28/140 29/32/141 
f 29/32/142 40/61/143 41/62/144 
f 44/28/145 90/63/146 42/64/147 
f 45/65/148 94/66/149 28/29/150 
f 45/65/151 28/29/152 44/28/153 
f 44/28/154 42/64/155 45/65/156 
f 28/29/157 94/66/158 46/67/159 
f 48/68/160 73/51/161 25/25/162 
f 48/68/163 25/25/164 28/29/165 
f 28/29/166 46/67/167 48/68/168 
s 2
f 77/33/169 26/34/170 2/26/171 
f 2/26/172 6/27/173 77/33/174 
f 76/96/175 78/38/176 7/35/177 
f 7/35/178 52/95/179 76/96/180 
s 4
f 79/40/181 27/37/182 51/36/183 
f 51/36/184 55/39/185 79/40/186 
f 83/43/187 80/44/188 56/41/189 
f 56/41/190 59/42/191 83/43/192 
s 2
f 81/46/193 36/86/194 58/85/195 
f 58/85/196 57/45/197 81/46/198 
f 85/49/199 86/50/200 15/47/201 
f 15/47/202 60/48/203 85/49/204 
s 4
f 87/70/205 38/88/206 14/87/207 
f 14/87/208 16/69/209 87/70/210 
f 91/90/211 88/74/212 64/71/213 
f 64/71/214 67/89/215 91/90/216 
s 2
f 89/76/217 43/73/218 66/72/219 
f 66/72/220 65/75/221 89/76/222 
f 95/92/223 92/80/224 21/77/225 
f 21/77/226 70/91/227 95/92/228 
s 4
f 93/82/229 47/79/230 23/78/231 
f 23/78/232 22/81/233 93/82/234 
f 74/94/235 96/84/236 24/83/237 
f 24/83/238 49/93/239 74/94/240 
s 2
f 78/38/241 77/33/242 6/27/243 
f 6/27/244 7/35/245 78/38/246 
s 4
f 80/44/247 79/40/248 55/39/249 
f 55/39/250 56/41/251 80/44/252 
s 2
f 86/50/253 81/46/254 57/45/255 
f 57/45/256 15/47/257 86/50/258 
s 4
f 88/74/259 87/70/260 16/69/261 
f 16/69/262 64/71/263 88/74/264 
s 2
f 92/80/265 89/76/266 65/75/267 
f 65/75/268 21/77/269 92/80/270 
s 4
f 96/84/271 93/82/272 22/81/273 
f 22/81/274 24/83/275 96/84/276 
# 92 faces

